<svg width="96" height="92" viewBox="0 0 96 92" fill="none" xmlns="http://www.w3.org/2000/svg">
<path d="M63.8185 28.8296C81.3475 28.5627 95.6545 42.3153 95.9939 59.7871C96.0437 62.3524 95.7865 64.8492 95.2566 67.2442C94.3592 71.2995 93.8258 75.4261 93.8258 79.5789V87.606C93.8258 88.8358 92.8257 89.8328 91.5919 89.8328H83.5392C79.3731 89.8328 75.2333 90.3645 71.1652 91.259C68.7627 91.7872 66.2579 92.0437 63.6845 91.9939C46.157 91.6558 32.3606 77.3947 32.628 59.9219C32.8888 42.867 46.7094 29.0902 63.8185 28.8296Z" fill="url(#paint0_linear)"/>
<path d="M63.8185 28.8296C81.3475 28.5627 95.6545 42.3153 95.9939 59.7871C96.0437 62.3524 95.7865 64.8492 95.2566 67.2442C94.3592 71.2995 93.8258 75.4261 93.8258 79.5789V87.606C93.8258 88.8358 92.8257 89.8328 91.5919 89.8328H83.5392C79.3731 89.8328 75.2333 90.3645 71.1652 91.259C68.7627 91.7872 66.2579 92.0437 63.6845 91.9939C46.157 91.6558 32.3606 77.3947 32.628 59.9219C32.8888 42.867 46.7094 29.0902 63.8185 28.8296Z" fill="url(#paint1_linear)"/>
<path d="M39.2059 0.00465519C17.8508 -0.320556 0.421004 16.4336 0.00737986 37.7193C-0.0531825 40.8441 0.260129 43.8864 0.905878 46.8039C1.999 51.7441 2.64888 56.7716 2.64888 61.8309V71.6101C2.64888 73.1083 3.86725 74.323 5.37043 74.323H15.1808C20.256 74.323 25.2996 74.9708 30.2558 76.0604C33.1826 76.7039 36.2344 77.0164 39.3692 76.9559C60.7224 76.5438 77.5301 59.17 77.2046 37.8832C76.8866 17.1057 60.0495 0.32183 39.2059 0.00465519Z" fill="url(#paint2_linear)"/>
<path d="M24.7862 36.419C23.6957 35.2639 22.1522 34.5386 20.4351 34.5386C17.1327 34.5386 14.4556 37.2072 14.4556 40.4991C14.4556 42.2106 15.1831 43.7492 16.342 44.8364L29.2409 57.6942C30.3315 58.8493 31.875 59.5746 33.592 59.5746C36.8944 59.5746 39.5715 56.906 39.5715 53.6141C39.5715 51.9026 38.8438 50.364 37.6851 49.2768L24.7862 36.419Z" fill="url(#paint3_linear)"/>
<path d="M20.4349 46.4589C23.7373 46.4589 26.4144 43.7903 26.4144 40.4984C26.4144 37.2065 23.7373 34.5378 20.4349 34.5378C17.1325 34.5378 14.4553 37.2065 14.4553 40.4984C14.4553 43.7903 17.1325 46.4589 20.4349 46.4589Z" fill="white"/>
<path d="M41.6968 36.419C40.6063 35.2639 39.0628 34.5386 37.3456 34.5386C34.0432 34.5386 31.3661 37.2072 31.3661 40.4991C31.3661 42.2106 32.0936 43.7492 33.2525 44.8364L46.1514 57.6942C47.2421 58.8493 48.7856 59.5746 50.5025 59.5746C53.8049 59.5746 56.482 56.906 56.482 53.6141C56.482 51.9026 55.7544 50.364 54.5956 49.2768L41.6968 36.419Z" fill="url(#paint4_linear)"/>
<path d="M37.3459 46.4589C40.6483 46.4589 43.3254 43.7903 43.3254 40.4984C43.3254 37.2065 40.6483 34.5378 37.3459 34.5378C34.0435 34.5378 31.3663 37.2065 31.3663 40.4984C31.3663 43.7903 34.0435 46.4589 37.3459 46.4589Z" fill="white"/>
<path d="M58.6072 36.419C57.5167 35.2639 55.9732 34.5386 54.256 34.5386C50.9536 34.5386 48.2765 37.2072 48.2765 40.4991C48.2765 42.2106 49.0042 43.7492 50.1629 44.8364L63.0618 57.6942C64.1525 58.8493 65.696 59.5746 67.4129 59.5746C70.7153 59.5746 73.3924 56.906 73.3924 53.6141C73.3924 51.9026 72.6648 50.364 71.506 49.2768L58.6072 36.419Z" fill="url(#paint5_linear)"/>
<path d="M54.257 46.4589C57.5594 46.4589 60.2366 43.7903 60.2366 40.4984C60.2366 37.2065 57.5594 34.5378 54.257 34.5378C50.9546 34.5378 48.2775 37.2065 48.2775 40.4984C48.2775 43.7903 50.9546 46.4589 54.257 46.4589Z" fill="white"/>
<g style="mix-blend-mode:color">
<rect width="96" height="92" fill="#7740D7"/>
</g>
<defs>
<linearGradient id="paint0_linear" x1="57.9154" y1="54.0386" x2="104.29" y2="100.562" gradientUnits="userSpaceOnUse">
<stop stop-color="#A7F3CE"/>
<stop offset="1" stop-color="#61DB99"/>
</linearGradient>
<linearGradient id="paint1_linear" x1="73.1447" y1="69.2186" x2="53.4471" y2="49.4601" gradientUnits="userSpaceOnUse">
<stop stop-color="#61DB99" stop-opacity="0"/>
<stop offset="1" stop-color="#009E74"/>
</linearGradient>
<linearGradient id="paint2_linear" x1="24.5005" y1="32.2604" x2="73.4628" y2="81.379" gradientUnits="userSpaceOnUse">
<stop stop-color="#62E1FB"/>
<stop offset="1" stop-color="#00A2F3"/>
</linearGradient>
<linearGradient id="paint3_linear" x1="33.7367" y1="53.7596" x2="7.95729" y2="27.8987" gradientUnits="userSpaceOnUse">
<stop stop-color="#00A2F3" stop-opacity="0"/>
<stop offset="1" stop-color="#0075CD"/>
</linearGradient>
<linearGradient id="paint4_linear" x1="50.6461" y1="53.7589" x2="24.8674" y2="27.898" gradientUnits="userSpaceOnUse">
<stop stop-color="#00A2F3" stop-opacity="0"/>
<stop offset="1" stop-color="#0075CD"/>
</linearGradient>
<linearGradient id="paint5_linear" x1="67.5564" y1="53.7592" x2="41.7778" y2="27.8983" gradientUnits="userSpaceOnUse">
<stop stop-color="#00A2F3" stop-opacity="0"/>
<stop offset="1" stop-color="#0075CD"/>
</linearGradient>
</defs>
</svg>
