<svg width="195" height="58" viewBox="0 0 195 58" fill="none" xmlns="http://www.w3.org/2000/svg">
<path d="M187.778 57.9986H7.22222C3.25 57.9986 0 54.7361 0 50.7487V7.24982C0 3.26242 3.25 0 7.22222 0H187.778C191.75 0 195 3.26242 195 7.24982V50.7487C195 54.7361 191.75 57.9986 187.778 57.9986Z" fill="black"/>
<path d="M187.778 0.000976562H7.22222C3.25 0.000976562 0 3.26339 0 7.24934V50.7497C0 54.7357 3.25 57.9995 7.22222 57.9995H187.778C191.75 57.9995 195 54.7357 195 50.7497V7.24934C195 3.26339 191.75 0.000976562 187.778 0.000976562ZM187.778 1.1595C191.123 1.1595 193.844 3.89268 193.844 7.24934V50.7497C193.844 54.1064 191.123 56.8396 187.778 56.8396H7.22222C3.87689 56.8396 1.15556 54.1064 1.15556 50.7497V7.24934C1.15556 3.89268 3.87689 1.1595 7.22222 1.1595H187.778Z" fill="#A6A6A6"/>
<path d="M68.4926 14.8533C68.4926 16.0684 68.1344 17.0355 67.4165 17.7576C66.6004 18.6145 65.5388 19.0437 64.233 19.0437C62.9821 19.0437 61.9175 18.6087 61.0437 17.7387C60.1669 16.8673 59.7307 15.7885 59.7307 14.4995C59.7307 13.2119 60.1669 12.1332 61.0437 11.2617C61.9175 10.3903 62.9821 9.95532 64.233 9.95532C64.8527 9.95532 65.4478 10.0771 66.0111 10.3207C66.5759 10.5643 67.028 10.8877 67.3674 11.2922L66.6048 12.0578C66.0313 11.369 65.2412 11.0254 64.233 11.0254C63.3201 11.0254 62.5314 11.3473 61.8655 11.9911C61.1997 12.6349 60.8674 13.4715 60.8674 14.4995C60.8674 15.529 61.1997 16.3656 61.8655 17.0094C62.5314 17.6532 63.3201 17.9751 64.233 17.9751C65.2008 17.9751 66.0068 17.6517 66.6539 17.0036C67.0728 16.5817 67.3154 15.9944 67.379 15.2419H64.233V14.1965H68.432C68.4724 14.4241 68.4926 14.6416 68.4926 14.8533Z" fill="white"/>
<path d="M68.4927 14.8535H68.3482C68.3468 16.041 68.0016 16.9618 67.314 17.6549L67.3126 17.6563V17.6578C66.5225 18.4857 65.5085 18.8975 64.233 18.8989C63.0154 18.8975 61.9956 18.4813 61.1448 17.636C60.2955 16.7892 59.8766 15.7554 59.8751 14.4997C59.8766 13.2441 60.2955 12.2117 61.1448 11.3649C61.9956 10.5196 63.0154 10.102 64.233 10.1005C64.8339 10.1005 65.4074 10.218 65.9548 10.4543C66.5022 10.6907 66.9341 11.001 67.2562 11.3852L67.3675 11.2924L67.2649 11.1895L66.5037 11.955L66.6048 12.058L66.716 11.9652C66.1151 11.2417 65.273 10.8777 64.233 10.8806C63.2855 10.8792 62.4535 11.2185 61.7659 11.8869C61.0697 12.5582 60.7216 13.4413 60.723 14.4997C60.7216 15.5597 61.0697 16.4427 61.7659 17.114C62.4535 17.7824 63.2855 18.1217 64.233 18.1203C65.2326 18.1217 66.0848 17.781 66.755 17.1068C67.2028 16.6558 67.457 16.0309 67.5235 15.2537L67.5379 15.0971H64.3775V14.3417H68.432V14.1967L68.2905 14.2228C68.3295 14.4417 68.3482 14.6505 68.3482 14.8535H68.6371C68.6371 14.6331 68.6169 14.4055 68.5736 14.1706L68.5534 14.0517H64.0886V15.3871H67.379V15.2421L67.236 15.2291C67.1725 15.9584 66.9414 16.5079 66.5514 16.9009C65.9302 17.5215 65.169 17.8289 64.233 17.8303C63.3534 17.8289 62.6095 17.5258 61.9667 16.9052C61.3297 16.2875 61.0134 15.4988 61.0119 14.4997C61.0134 13.5022 61.3297 12.7134 61.9667 12.0957C62.6095 11.4751 63.3534 11.1721 64.233 11.1706C65.2095 11.1721 65.9461 11.4969 66.495 12.1508L66.5961 12.2726L67.4686 11.3954L67.5625 11.3011L67.4772 11.1996C67.1219 10.7748 66.6496 10.4384 66.0689 10.1875C65.4868 9.93669 64.8715 9.81055 64.233 9.81055C62.9475 9.8091 61.8396 10.2629 60.9411 11.159C60.0398 12.0536 59.5848 13.1788 59.5862 14.4997C59.5848 15.8206 60.0398 16.9458 60.9411 17.8419C61.8396 18.738 62.9489 19.1904 64.233 19.1889C65.5691 19.1904 66.6799 18.7452 67.5206 17.8578L67.4166 17.7578L67.5191 17.8593C68.2674 17.1097 68.6386 16.0947 68.6371 14.8535H68.4927Z" fill="white"/>
<path d="M75.1501 11.2197H71.2039V13.9776H74.763V15.023H71.2039V17.7808H75.1501V18.8494H70.0902V10.1497H75.1501V11.2197Z" fill="white"/>
<path d="M75.1501 11.22V11.075H71.0595V14.1228H74.6186V14.8782H71.0595V17.926H75.0057V18.7047H70.2347V10.2949H75.0057V11.22H75.1501V11.075V11.22H75.2946V10.1499V10.0049H69.9458V18.9947H75.2946V17.781V17.636H71.3484V15.1682H74.9075V13.9778V13.8328H71.3484V11.3649H75.2946V11.22H75.1501Z" fill="white"/>
<path d="M79.846 18.8494H78.7323V11.2197H76.3114V10.1497H82.2668V11.2197H79.846V18.8494Z" fill="white"/>
<path d="M79.846 18.8497V18.7047H78.8768V11.075H76.4559V10.2949H82.1224V11.075H79.7016V18.8497H79.846V18.7047V18.8497H79.9904V11.3649H82.4113V10.1499V10.0049H76.167V11.3649H78.5879V18.9947H79.9904V18.8497H79.846Z" fill="white"/>
<path d="M87.6893 10.1497H86.5771V18.8494H87.6893V10.1497Z" fill="white"/>
<path d="M86.5771 18.8497H86.7216V10.2949H87.5449V18.7047H86.5771V18.8497H86.7216H86.5771V18.9947H87.8338V10.0049H86.5771H86.4327V18.9947H86.5771V18.8497Z" fill="white"/>
<path d="M92.6294 18.8494H91.5143V11.2197H89.0948V10.1497H95.0503V11.2197H92.6294V18.8494Z" fill="white"/>
<path d="M92.6293 18.8497V18.7047H91.6587V11.075H89.2392V10.2949H94.9058V11.075H92.4849V18.8497H92.6293V18.7047V18.8497H92.7738V11.3649H95.1946V10.1499V10.0049H88.9503V11.3649H91.3698V18.9947H92.7738V18.8497H92.6293Z" fill="white"/>
<path d="M100.792 16.9978C101.433 17.6488 102.218 17.9751 103.146 17.9751C104.074 17.9751 104.859 17.6488 105.501 16.9978C106.142 16.3453 106.464 15.513 106.464 14.4995C106.464 13.4874 106.142 12.6552 105.501 12.0027C104.859 11.3516 104.074 11.0254 103.146 11.0254C102.218 11.0254 101.433 11.3516 100.792 12.0027C100.151 12.6552 99.8299 13.4874 99.8299 14.4995C99.8299 15.513 100.151 16.3453 100.792 16.9978ZM106.324 17.7257C105.472 18.6058 104.413 19.0437 103.146 19.0437C101.88 19.0437 100.819 18.6058 99.97 17.7257C99.1178 16.847 98.6931 15.7711 98.6931 14.4995C98.6931 13.2279 99.1178 12.1535 99.97 11.2748C100.819 10.3947 101.88 9.95532 103.146 9.95532C104.406 9.95532 105.462 10.3976 106.318 11.2806C107.173 12.1636 107.601 13.2366 107.601 14.4995C107.601 15.7711 107.175 16.847 106.324 17.7257Z" fill="white"/>
<path d="M100.792 16.998L100.689 17.0995C101.354 17.7781 102.184 18.1217 103.146 18.1203C104.108 18.1217 104.939 17.7781 105.603 17.0995C106.272 16.4209 106.61 15.5437 106.609 14.4997C106.61 13.4572 106.272 12.58 105.603 11.9014C104.939 11.2228 104.108 10.8792 103.146 10.8806C102.184 10.8792 101.354 11.2228 100.689 11.9014C100.021 12.58 99.684 13.4572 99.6855 14.4997C99.684 15.5437 100.021 16.4209 100.689 17.0995L100.792 16.998L100.894 16.8951C100.282 16.2701 99.9758 15.4828 99.9744 14.4997C99.9758 13.5181 100.282 12.7308 100.894 12.1044V12.1058C101.513 11.4795 102.251 11.1721 103.146 11.1706C104.04 11.1721 104.78 11.4795 105.397 12.1044V12.1058C106.012 12.7308 106.318 13.5181 106.32 14.4997C106.318 15.4828 106.012 16.2701 105.397 16.8951C104.78 17.5215 104.04 17.8289 103.146 17.8303C102.251 17.8289 101.513 17.5215 100.894 16.8951L100.792 16.998ZM106.324 17.7259L106.22 17.6244C105.392 18.477 104.38 18.8975 103.146 18.8989C101.913 18.8975 100.899 18.477 100.073 17.6244L100.068 17.6215L100.073 17.6244C99.2464 16.7704 98.839 15.7395 98.8376 14.4997C98.839 13.2615 99.2464 12.2305 100.073 11.3765C100.899 10.5239 101.913 10.102 103.146 10.1005C104.373 10.102 105.382 10.5254 106.214 11.3823C107.045 12.2407 107.455 13.2687 107.457 14.4997C107.455 15.7395 107.045 16.7704 106.22 17.6244L106.428 17.8274C107.303 16.9241 107.747 15.8047 107.745 14.4997C107.747 13.2035 107.302 12.087 106.422 11.1793C105.541 10.2702 104.439 9.8091 103.146 9.81055C101.846 9.8091 100.74 10.2673 99.866 11.1735C98.9878 12.0768 98.5473 13.1962 98.5487 14.4997C98.5473 15.8047 98.9878 16.9241 99.866 17.8274L99.8704 17.8317L99.866 17.8274C100.74 18.7336 101.846 19.1904 103.146 19.1889C104.446 19.1904 105.551 18.7336 106.428 17.8274L106.324 17.7259Z" fill="white"/>
<path d="M109.164 18.8494V10.1497H110.519L114.731 16.9181H114.778L114.731 15.2419V10.1497H115.846V18.8494H114.683L110.276 11.7548H110.228L110.276 13.4309V18.8494H109.164Z" fill="white"/>
<path d="M109.164 18.8497H109.308V10.2949H110.439L114.651 17.0633H114.927L114.875 15.2393V10.2949H115.701V18.7047H114.764L110.357 11.61H110.228H110.08L110.132 13.434V18.7047H109.164V18.8497H109.308H109.164V18.9947H110.421V13.4297L110.373 11.7506L110.228 11.755V11.9H110.276V11.755L110.153 11.8318L114.604 18.9947H115.99V10.0049H114.731H114.586V15.2436L114.634 16.9227L114.778 16.9183V16.7733H114.731V16.9183L114.854 16.8415L110.6 10.0049H109.164H109.019V18.9947H109.164V18.8497Z" fill="white"/>
<path d="M154.463 43.5004H157.158V25.3729H154.463V43.5004ZM178.74 31.9021L175.65 39.7609H175.558L172.351 31.9021H169.448L174.256 42.887L171.515 48.9957H174.327L181.737 31.9021H178.74ZM163.455 41.44C162.571 41.44 161.34 40.9977 161.34 39.9016C161.34 38.5024 162.874 37.9659 164.197 37.9659C165.383 37.9659 165.939 38.2225 166.66 38.5719C166.451 40.251 165.01 41.44 163.455 41.44ZM163.78 31.5063C161.828 31.5063 159.808 32.369 158.971 34.2815L161.363 35.2849C161.875 34.2815 162.826 33.9553 163.826 33.9553C165.22 33.9553 166.637 34.7948 166.66 36.2868V36.4738C166.172 36.194 165.127 35.7735 163.849 35.7735C161.271 35.7735 158.645 37.1959 158.645 39.8552C158.645 42.2795 160.759 43.8426 163.128 43.8426C164.941 43.8426 165.939 43.0262 166.568 42.0707H166.66V43.4699H169.261V36.5202C169.261 33.3013 166.869 31.5063 163.78 31.5063ZM147.122 34.109H143.289V27.8959H147.122C149.137 27.8959 150.281 29.5706 150.281 31.0031C150.281 32.4082 149.137 34.109 147.122 34.109ZM147.053 25.3729H140.595V43.5004H143.289V36.6319H147.053C150.04 36.6319 152.977 34.4613 152.977 31.0031C152.977 27.5435 150.04 25.3729 147.053 25.3729ZM111.835 41.4443C109.974 41.4443 108.414 39.8784 108.414 37.7295C108.414 35.5575 109.974 33.9698 111.835 33.9698C113.673 33.9698 115.116 35.5575 115.116 37.7295C115.116 39.8784 113.673 41.4443 111.835 41.4443ZM114.93 32.9185H114.838C114.232 32.1936 113.068 31.5396 111.602 31.5396C108.531 31.5396 105.715 34.2496 105.715 37.7295C105.715 41.1877 108.531 43.873 111.602 43.873C113.068 43.873 114.232 43.2191 114.838 42.4724H114.93V43.3597C114.93 45.7188 113.673 46.9803 111.648 46.9803C109.997 46.9803 108.973 45.7884 108.554 44.785L106.204 45.7652C106.879 47.4008 108.67 49.4104 111.648 49.4104C114.815 49.4104 117.49 47.5414 117.49 42.9856V31.9137H114.93V32.9185ZM119.352 43.5004H122.051V25.3729H119.352V43.5004ZM126.031 37.5193C125.96 35.137 127.869 33.9219 129.242 33.9219C130.313 33.9219 131.221 34.4599 131.522 35.2312L126.031 37.5193ZM134.408 35.4647C133.897 34.0858 132.337 31.5396 129.149 31.5396C125.984 31.5396 123.354 34.0394 123.354 37.7063C123.354 41.1645 125.96 43.873 129.451 43.873C132.268 43.873 133.897 42.1447 134.572 41.1398L132.477 39.7392C131.78 40.7672 130.825 41.4443 129.451 41.4443C128.077 41.4443 127.101 40.8136 126.473 39.5753L134.687 36.165L134.408 35.4647ZM68.9622 33.4318V36.0476H75.1993C75.0129 37.5193 74.5247 38.5937 73.7794 39.3419C72.8723 40.2525 71.4524 41.2573 68.9622 41.2573C65.1228 41.2573 62.1213 38.15 62.1213 34.296C62.1213 30.442 65.1228 27.3347 68.9622 27.3347C71.0335 27.3347 72.5458 28.1525 73.6638 29.2037L75.5012 27.3579C73.9426 25.863 71.8713 24.719 68.9622 24.719C63.7029 24.719 59.2815 29.0167 59.2815 34.296C59.2815 39.5753 63.7029 43.873 68.9622 43.873C71.8019 43.873 73.9426 42.9392 75.6182 41.1877C77.3399 39.4579 77.8758 37.0292 77.8758 35.0674C77.8758 34.4599 77.8282 33.8987 77.7357 33.4318H68.9622ZM84.9652 41.4443C83.1033 41.4443 81.4985 39.903 81.4985 37.7063C81.4985 35.4879 83.1033 33.9698 84.9652 33.9698C86.827 33.9698 88.4318 35.4879 88.4318 37.7063C88.4318 39.903 86.827 41.4443 84.9652 41.4443ZM84.9652 31.5396C81.5678 31.5396 78.7988 34.1322 78.7988 37.7063C78.7988 41.2573 81.5678 43.873 84.9652 43.873C88.3625 43.873 91.1315 41.2573 91.1315 37.7063C91.1315 34.1322 88.3625 31.5396 84.9652 31.5396ZM98.4173 41.4443C96.5568 41.4443 94.9506 39.903 94.9506 37.7063C94.9506 35.4879 96.5568 33.9698 98.4173 33.9698C100.279 33.9698 101.885 35.4879 101.885 37.7063C101.885 39.903 100.279 41.4443 98.4173 41.4443ZM98.4173 31.5396C95.0199 31.5396 92.2509 34.1322 92.2509 37.7063C92.2509 41.2573 95.0199 43.873 98.4173 43.873C101.816 43.873 104.585 41.2573 104.585 37.7063C104.585 34.1322 101.816 31.5396 98.4173 31.5396Z" fill="white"/>
<path fill-rule="evenodd" clip-rule="evenodd" d="M15.1797 46.9643L15.0728 46.8614C14.6524 46.4148 14.404 45.7217 14.404 44.8242V45.0344V12.967C14.404 12.9656 14.404 12.9627 14.404 12.9598V13.1802C14.404 12.2087 14.6943 11.475 15.1782 11.0371L33.0749 29.0007L15.1797 46.9643ZM14.404 12.9583C14.404 12.8786 14.4069 12.8003 14.4098 12.7249C14.4069 12.8003 14.404 12.8786 14.404 12.9583ZM14.4112 12.7205C14.4112 12.7205 14.4112 12.7191 14.4112 12.7176C14.4112 12.7191 14.4112 12.7205 14.4112 12.7205ZM14.4112 12.7104V12.7089V12.7104Z" fill="url(#paint0_linear)"/>
<path fill-rule="evenodd" clip-rule="evenodd" d="M39.039 35.2037L39.1748 35.1254L46.2424 31.0945C46.917 30.7103 47.3662 30.2449 47.5901 29.7504C47.3662 30.2449 46.917 30.7103 46.2424 31.096L39.1748 35.1269L39.039 35.2037ZM39.0404 34.9906L33.0749 29.0008L39.0404 23.0125L46.2424 27.1202C47.1582 27.6407 47.671 28.3135 47.7562 29.0008C47.7562 29.0008 47.7562 29.0023 47.7562 29.0037C47.671 29.6881 47.1582 30.3609 46.2424 30.8829L39.0404 34.9906Z" fill="url(#paint1_linear)"/>
<path fill-rule="evenodd" clip-rule="evenodd" d="M16.4551 47.6487C15.9553 47.6487 15.5205 47.4849 15.1796 47.1775V47.176C15.5205 47.4849 15.9568 47.6487 16.4565 47.6487C16.4999 47.6487 16.5446 47.6473 16.5894 47.6444C16.5446 47.6473 16.4999 47.6487 16.4551 47.6487ZM16.4565 47.4356C15.9568 47.437 15.5205 47.2732 15.1796 46.9643L33.0749 29.0007L39.0404 34.9905L18.0743 46.9498C17.4951 47.2804 16.9448 47.4356 16.4565 47.4356ZM15.1753 47.1731C15.1435 47.1441 15.1118 47.1137 15.0814 47.0818L15.1753 47.1731Z" fill="url(#paint2_linear)"/>
<path fill-rule="evenodd" clip-rule="evenodd" d="M33.0749 29.0008L15.1782 11.0372C15.5191 10.7298 15.9539 10.5659 16.4537 10.5659C16.9433 10.5659 17.4937 10.7225 18.0743 11.0546L39.0404 23.0124L33.0749 29.0008ZM39.1748 22.8776L18.0743 10.8429C17.4937 10.5108 16.9433 10.3542 16.4537 10.3542C16.4522 10.3542 16.4493 10.3542 16.4479 10.3542C16.4493 10.3542 16.4522 10.3542 16.4551 10.3542C16.9448 10.3542 17.4937 10.5108 18.0743 10.8414L39.1748 22.8761V22.8776Z" fill="url(#paint3_linear)"/>
<path d="M16.5894 47.6445C17.043 47.6185 17.5456 47.4619 18.0743 47.1617L39.039 35.2039L18.0743 47.1617C17.5456 47.4633 17.043 47.6199 16.5894 47.6445ZM15.1796 47.1777L15.1753 47.1733C15.1768 47.1748 15.1782 47.1762 15.1796 47.1777ZM15.0814 47.082L15.0728 47.0733C15.0756 47.0762 15.0785 47.0791 15.0814 47.082Z" fill="black"/>
<path fill-rule="evenodd" clip-rule="evenodd" d="M39.0389 35.2035L39.1747 35.1252L39.0389 35.2035Z" fill="url(#paint4_linear)"/>
<path fill-rule="evenodd" clip-rule="evenodd" d="M16.4565 47.6487C15.9568 47.6487 15.5205 47.4848 15.1796 47.176V47.1774C15.1782 47.176 15.1768 47.1745 15.1753 47.1731L15.0814 47.0817C15.0785 47.0788 15.0756 47.0759 15.0728 47.073L15.1796 46.9643C15.5205 47.2731 15.9568 47.437 16.4565 47.4355C16.9448 47.4355 17.4951 47.2804 18.0743 46.9498L39.0404 34.9905L39.1748 35.1253L39.039 35.2036L18.0743 47.1615C17.5456 47.4616 17.043 47.6182 16.5894 47.6443C16.5446 47.6472 16.4999 47.6487 16.4565 47.6487Z" fill="url(#paint5_linear)"/>
<path d="M15.0728 47.0731C14.6524 46.6265 14.404 45.9334 14.404 45.0359V45.0344C14.404 45.9334 14.6524 46.6265 15.0728 47.0716V47.0731Z" fill="black"/>
<path fill-rule="evenodd" clip-rule="evenodd" d="M15.0728 47.0717C14.6524 46.6265 14.404 45.9334 14.404 45.0345V44.8242C14.404 45.7217 14.6524 46.4148 15.0728 46.8614L15.1797 46.9644L15.0728 47.0717Z" fill="url(#paint6_linear)"/>
<path fill-rule="evenodd" clip-rule="evenodd" d="M15.0728 47.0731V47.0717L15.1796 46.9644L15.0728 47.0731Z" fill="url(#paint7_linear)"/>
<path d="M47.5901 29.7504C47.7014 29.5068 47.7563 29.2545 47.7563 29.0036C47.7563 29.0022 47.7577 29.0022 47.7577 29.0022C47.7577 29.2545 47.7014 29.5053 47.5901 29.7504Z" fill="black"/>
<path fill-rule="evenodd" clip-rule="evenodd" d="M39.1748 35.1254L39.0405 34.9906L46.2425 30.8828C47.1582 30.3608 47.671 29.688 47.7562 29.0037C47.7562 29.2545 47.7014 29.5068 47.5901 29.7504C47.3662 30.2448 46.917 30.7103 46.2425 31.0945L39.1748 35.1254Z" fill="url(#paint8_linear)"/>
<path d="M47.7576 29.0006H47.7562C47.7562 28.2423 47.2521 27.484 46.2424 26.9083L39.1747 22.8774V22.876L46.2424 26.9083C47.2521 27.484 47.7576 28.2423 47.7576 29.0006Z" fill="#404040"/>
<path fill-rule="evenodd" clip-rule="evenodd" d="M47.7562 29.0006C47.671 28.3134 47.1582 27.6406 46.2425 27.12L39.0405 23.0123L39.1748 22.8774L46.2425 26.9083C47.2521 27.484 47.7562 28.2423 47.7562 29.0006Z" fill="url(#paint9_linear)"/>
<path d="M14.404 12.9598V12.9584V12.9598ZM14.4098 12.7249C14.4112 12.7235 14.4112 12.722 14.4112 12.7206C14.4112 12.722 14.4112 12.7235 14.4098 12.7249ZM14.4112 12.7177C14.4112 12.7162 14.4112 12.7133 14.4112 12.7104C14.4112 12.7133 14.4112 12.7162 14.4112 12.7177ZM14.4112 12.709C14.495 11.2199 15.301 10.36 16.4421 10.3542C15.9481 10.3571 15.5177 10.5195 15.1797 10.8255L15.1753 10.8298C15.1407 10.8617 15.106 10.8951 15.0728 10.9299C14.6943 11.333 14.4545 11.9362 14.4112 12.709Z" fill="#404040"/>
<path fill-rule="evenodd" clip-rule="evenodd" d="M14.404 13.1802V12.9685C14.404 12.9656 14.404 12.9627 14.404 12.9598V12.9583C14.404 12.8786 14.4069 12.8003 14.4098 12.7249C14.4112 12.7234 14.4112 12.722 14.4112 12.7205C14.4112 12.7205 14.4112 12.7191 14.4112 12.7176C14.4112 12.7162 14.4112 12.7133 14.4112 12.7104V12.7089C14.4545 11.9361 14.6943 11.3329 15.0728 10.9298L15.1782 11.0371C14.6943 11.475 14.404 12.2087 14.404 13.1802ZM15.1753 10.8298L15.1797 10.8254C15.1782 10.8269 15.1768 10.8283 15.1753 10.8298Z" fill="url(#paint10_linear)"/>
<path fill-rule="evenodd" clip-rule="evenodd" d="M39.0404 23.0124L18.0743 11.0546C17.4936 10.7225 16.9433 10.5659 16.4536 10.5659C15.9539 10.5659 15.5191 10.7298 15.1782 11.0372L15.0728 10.9299C15.106 10.8951 15.1406 10.8617 15.1753 10.8298C15.1768 10.8284 15.1782 10.8269 15.1796 10.8255C15.5176 10.5195 15.9481 10.3571 16.4421 10.3542H16.4536C16.9433 10.3542 17.4936 10.5108 18.0743 10.8429L39.1748 22.8776L39.0404 23.0124Z" fill="url(#paint11_linear)"/>
<defs>
<linearGradient id="paint0_linear" x1="31.4886" y1="12.6287" x2="7.15475" y2="-11.6125" gradientUnits="userSpaceOnUse">
<stop stop-color="#00A0FF"/>
<stop offset="1" stop-color="#00E2FF"/>
</linearGradient>
<linearGradient id="paint1_linear" x1="48.8719" y1="29.0014" x2="13.9207" y2="29.0014" gradientUnits="userSpaceOnUse">
<stop stop-color="#FFDF00"/>
<stop offset="1" stop-color="#FF9C00"/>
</linearGradient>
<linearGradient id="paint2_linear" x1="35.8612" y1="32.3285" x2="2.86273" y2="-0.544316" gradientUnits="userSpaceOnUse">
<stop stop-color="#FF3A44"/>
<stop offset="1" stop-color="#C31162"/>
</linearGradient>
<linearGradient id="paint3_linear" x1="10.5405" y1="0.255541" x2="25.2757" y2="-14.4235" gradientUnits="userSpaceOnUse">
<stop stop-color="#31A070"/>
<stop offset="1" stop-color="#00EF75"/>
</linearGradient>
<linearGradient id="paint4_linear" x1="48.8716" y1="29.0011" x2="13.9212" y2="29.0011" gradientUnits="userSpaceOnUse">
<stop stop-color="#CCB300"/>
<stop offset="1" stop-color="#CC7C00"/>
</linearGradient>
<linearGradient id="paint5_linear" x1="35.8612" y1="32.3285" x2="2.86273" y2="-0.544369" gradientUnits="userSpaceOnUse">
<stop stop-color="#CC2D36"/>
<stop offset="1" stop-color="#9C0E4D"/>
</linearGradient>
<linearGradient id="paint6_linear" x1="31.4886" y1="12.6288" x2="7.15478" y2="-11.6124" gradientUnits="userSpaceOnUse">
<stop stop-color="#008CDF"/>
<stop offset="1" stop-color="#00C6DF"/>
</linearGradient>
<linearGradient id="paint7_linear" x1="35.8616" y1="32.3284" x2="2.86276" y2="-0.545028" gradientUnits="userSpaceOnUse">
<stop stop-color="#DF333B"/>
<stop offset="1" stop-color="#AA0E56"/>
</linearGradient>
<linearGradient id="paint8_linear" x1="48.8719" y1="29.0013" x2="13.9207" y2="29.0013" gradientUnits="userSpaceOnUse">
<stop stop-color="#DFC400"/>
<stop offset="1" stop-color="#DF8900"/>
</linearGradient>
<linearGradient id="paint9_linear" x1="48.8719" y1="29.0012" x2="13.9207" y2="29.0012" gradientUnits="userSpaceOnUse">
<stop stop-color="#FFE83F"/>
<stop offset="1" stop-color="#FFB53F"/>
</linearGradient>
<linearGradient id="paint10_linear" x1="31.4886" y1="12.6288" x2="7.15476" y2="-11.6125" gradientUnits="userSpaceOnUse">
<stop stop-color="#3FB8FF"/>
<stop offset="1" stop-color="#3FE9FF"/>
</linearGradient>
<linearGradient id="paint11_linear" x1="10.5405" y1="0.255541" x2="25.2757" y2="-14.4235" gradientUnits="userSpaceOnUse">
<stop stop-color="#64B895"/>
<stop offset="1" stop-color="#3FF497"/>
</linearGradient>
</defs>
</svg>
